<?xml version="1.0" standalone="no"?>
<!DOCTYPE svg PUBLIC "-//W3C//DTD SVG 20010904//EN"
 "http://www.w3.org/TR/2001/REC-SVG-20010904/DTD/svg10.dtd">
<svg version="1.0" xmlns="http://www.w3.org/2000/svg"
 width="512.000000pt" height="512.000000pt" viewBox="0 0 512.000000 512.000000"
 preserveAspectRatio="xMidYMid meet">
<metadata>
Created by potrace 1.14, written by Peter Selinger 2001-2017
</metadata>
<g transform="translate(0.000000,512.000000) scale(0.100000,-0.100000)"
fill="#000000" stroke="none">
<path d="M2378 5115 c-1 -1 -39 -5 -82 -9 -44 -4 -82 -9 -85 -11 -4 -2 -34 -7
-66 -10 -117 -14 -472 -111 -499 -136 -6 -5 -16 -9 -23 -9 -31 0 -241 -103
-388 -191 -234 -140 -491 -362 -655 -568 -19 -24 -39 -49 -45 -55 -88 -101
-246 -369 -323 -546 -61 -142 -131 -351 -146 -443 -3 -15 -7 -35 -10 -45 -3
-9 -7 -34 -11 -56 -3 -21 -7 -41 -9 -45 -4 -6 -12 -71 -26 -201 -8 -84 -5
-453 5 -515 3 -22 12 -80 20 -130 143 -882 745 -1630 1581 -1963 197 -79 418
-137 604 -158 30 -3 76 -10 103 -14 48 -7 472 -5 517 4 14 2 45 7 70 10 25 4
92 16 150 27 58 12 115 23 128 25 38 7 320 103 370 125 91 41 245 121 321 166
636 382 1088 1046 1207 1773 38 235 40 574 5 805 -130 854 -704 1608 -1486
1951 -44 20 -89 39 -100 44 -86 38 -365 119 -465 134 -19 3 -46 8 -60 11 -14
3 -45 8 -70 11 -25 3 -56 8 -70 10 -27 6 -456 14 -462 9z m227 -1449 c120 -9
255 -23 340 -36 33 -5 80 -12 105 -15 223 -30 550 -120 825 -226 162 -62 452
-212 497 -256 55 -54 78 -107 78 -181 0 -144 -104 -250 -249 -253 -62 -2 -53
-5 -296 118 -267 135 -623 247 -930 293 -44 7 -89 14 -100 16 -40 8 -133 18
-285 31 -123 10 -543 10 -685 0 -106 -8 -130 -10 -240 -22 -119 -13 -354 -50
-415 -65 -19 -5 -50 -12 -68 -15 -18 -3 -59 -11 -90 -18 -141 -33 -255 18
-311 139 -29 60 -24 163 9 224 32 56 95 104 162 123 100 29 402 86 537 102 30
4 63 9 75 11 12 2 55 7 96 10 41 3 86 7 100 10 14 2 79 7 145 10 66 4 121 7
122 8 4 4 523 -3 578 -8z m-20 -901 c17 -2 59 -7 95 -10 36 -3 103 -12 150
-20 47 -8 103 -17 125 -20 22 -4 48 -8 57 -11 16 -5 41 -10 88 -19 258 -48
758 -253 863 -354 110 -105 67 -293 -79 -341 -62 -21 -123 -6 -246 58 -95 49
-169 82 -293 132 -11 5 -42 15 -70 24 -27 8 -79 24 -115 36 -96 29 -306 74
-405 86 -5 0 -32 4 -60 8 -92 13 -111 15 -221 22 -272 17 -649 -1 -859 -40
-11 -2 -45 -7 -75 -11 -64 -9 -56 -7 -185 -35 -153 -34 -217 -26 -277 34 -86
88 -80 238 15 310 29 22 126 55 212 71 174 33 244 44 370 60 33 3 70 8 83 10
12 2 75 7 140 11 64 3 119 8 120 10 6 4 533 -5 567 -11z m-164 -779 c52 -3
105 -8 119 -10 14 -3 50 -7 80 -10 156 -18 398 -72 550 -124 226 -77 459 -196
496 -252 59 -91 29 -201 -68 -251 -62 -31 -103 -25 -221 35 -219 111 -504 205
-698 230 -114 15 -136 18 -159 22 -124 21 -520 21 -695 0 -95 -12 -133 -17
-155 -21 -14 -2 -45 -7 -70 -10 -25 -3 -94 -16 -155 -29 -60 -13 -123 -21
-140 -19 -144 22 -200 201 -93 300 33 31 88 49 238 78 36 7 228 36 275 41 22
3 54 7 70 9 17 3 95 7 175 11 80 4 146 7 147 8 4 3 223 -2 304 -8z"/>
</g>
</svg>
